<?xml version="1.0" encoding="utf-8"?>
<!-- Generator: Adobe Illustrator 24.1.2, SVG Export Plug-In . SVG Version: 6.00 Build 0)  -->
<svg version="1.1" xmlns="http://www.w3.org/2000/svg" xmlns:xlink="http://www.w3.org/1999/xlink" x="0px" y="0px"
	 viewBox="0 0 16.5 16" style="enable-background:new 0 0 16.5 16;" xml:space="preserve">
<style type="text/css">
	.st0{enable-background:new    ;}
	.st1{fill:#36B687;}
	.st2{fill-rule:evenodd;clip-rule:evenodd;fill:#36B687;}
</style>
<g id="Elipsa_2206_1_" class="st0">
	<g>
		<path class="st1" d="M8.49,16c-0.68,0-1.38-0.09-2.07-0.27c-2.68-0.72-4.77-2.74-5.58-5.4c-0.08-0.26,0.07-0.54,0.33-0.62
			c0.27-0.08,0.54,0.07,0.62,0.33c0.71,2.33,2.54,4.1,4.88,4.72c3.73,1,7.58-1.22,8.57-4.95c1-3.73-1.22-7.57-4.95-8.57
			C7.86,0.58,5.24,1.31,3.47,3.13c-0.19,0.2-0.51,0.2-0.71,0.01c-0.2-0.19-0.2-0.51-0.01-0.71c2.02-2.08,5.02-2.91,7.82-2.16
			c4.26,1.14,6.8,5.54,5.66,9.8C15.27,13.64,12.03,16,8.49,16z"/>
	</g>
</g>
<g id="ARROW_x5F_zobacz_1_" class="st0">
	<g id="ARROW_x5F_zobacz">
		<path class="st2" d="M13.62,8.32C11.68,6.84,9.75,5.37,7.8,3.88v2.79c-0.12,0-0.22,0-0.31,0C6.56,6.64,5.65,6.51,4.77,6.23
			c-1.03-0.34-1.8-0.9-2.69-1.68C1.18,3.76,0.23,1.83,0.23,1.83c0.01,0.26,0.02,0.51,0.04,0.76c0.08,0.88,0.25,1.74,0.55,2.57
			c0.37,1.01,0.89,1.93,1.65,2.7C3.24,8.65,4.16,9.19,5.2,9.52c0.76,0.25,1.55,0.37,2.35,0.4c0.07,0,0.14,0,0.23,0v2.84
			C9.75,11.26,11.68,9.79,13.62,8.32z"/>
	</g>
</g>
</svg>
